HIERARCHY
ROOT joint_Root
{
	OFFSET 0.0 0.0 0.0
	CHANNELS 6 Xposition Yposition Zposition Zrotation Xrotation Yrotation 
	JOINT Hips
	{
		OFFSET -0.726466 93.3139 -2.00062
		CHANNELS 6 Xposition Yposition Zposition Zrotation Xrotation Yrotation 
		JOINT Spine
		{
			OFFSET 15.7357 0.0 0.0
			CHANNELS 6 Xposition Yposition Zposition Zrotation Xrotation Yrotation 
			JOINT Chest
			{
				OFFSET 8.98455 -0.406207 0.0
				CHANNELS 6 Xposition Yposition Zposition Zrotation Xrotation Yrotation 
				JOINT Neck
				{
					OFFSET 16.3773 0.0 0.0
					CHANNELS 6 Xposition Yposition Zposition Zrotation Xrotation Yrotation 
					JOINT Head
					{
						OFFSET 6.45672 0.0 0.0
						CHANNELS 6 Xposition Yposition Zposition Zrotation Xrotation Yrotation 
						End Site
						{
							OFFSET 0.0 0.0 0.0
						}
					}
				}
				JOINT Shoulder_L
				{
					OFFSET 12.9942 -0.242716 4.98039
					CHANNELS 6 Xposition Yposition Zposition Zrotation Xrotation Yrotation 
					JOINT UpperArm_L
					{
						OFFSET 5.34809 0.0 0.0
						CHANNELS 6 Xposition Yposition Zposition Zrotation Xrotation Yrotation 
						JOINT LowerArm_L
						{
							OFFSET 24.3286 1.87007e-05 0.0
							CHANNELS 6 Xposition Yposition Zposition Zrotation Xrotation Yrotation 
							JOINT Hand_L
							{
								OFFSET 22.2916 0.0 0.0
								CHANNELS 6 Xposition Yposition Zposition Zrotation Xrotation Yrotation 
								End Site
								{
									OFFSET 0.0 0.0 0.0
								}
							}
						}
					}
				}
				JOINT Shoulder_R
				{
					OFFSET 12.9945 -0.242716 -4.98039
					CHANNELS 6 Xposition Yposition Zposition Zrotation Xrotation Yrotation 
					JOINT UpperArm_R
					{
						OFFSET -5.34813 0.0 0.0
						CHANNELS 6 Xposition Yposition Zposition Zrotation Xrotation Yrotation 
						JOINT LowerArm_R
						{
							OFFSET -24.3289 0.000322201 0.0
							CHANNELS 6 Xposition Yposition Zposition Zrotation Xrotation Yrotation 
							JOINT Hand_R
							{
								OFFSET -22.2915 -0.000108084 0.0
								CHANNELS 6 Xposition Yposition Zposition Zrotation Xrotation Yrotation 
								End Site
								{
									OFFSET 0.0 0.0 0.0
								}
							}
						}
					}
				}
			}
		}
		JOINT UpperLeg_L
		{
			OFFSET -2.19248 -6.46944 0.0
			CHANNELS 6 Xposition Yposition Zposition Zrotation Xrotation Yrotation 
			JOINT LowerLeg_L
			{
				OFFSET 39.0811 0.0 -1.23785e-05
				CHANNELS 6 Xposition Yposition Zposition Zrotation Xrotation Yrotation 
				JOINT Foot_L
				{
					OFFSET 40.9854 0.0 -1.26872e-05
					CHANNELS 6 Xposition Yposition Zposition Zrotation Xrotation Yrotation 
					JOINT Toes_L
					{
						OFFSET 11.7543 0.0 0.0
						CHANNELS 6 Xposition Yposition Zposition Zrotation Xrotation Yrotation 
						End Site
						{
							OFFSET 0.0 0.0 0.0
						}
					}
				}
			}
		}
		JOINT UpperLeg_R
		{
			OFFSET -2.19251 6.46944 0.0
			CHANNELS 6 Xposition Yposition Zposition Zrotation Xrotation Yrotation 
			JOINT LowerLeg_R
			{
				OFFSET -39.0811 -0.00228153 -0.0401928
				CHANNELS 6 Xposition Yposition Zposition Zrotation Xrotation Yrotation 
				JOINT Foot_R
				{
					OFFSET -40.9854 0.0 0.0
					CHANNELS 6 Xposition Yposition Zposition Zrotation Xrotation Yrotation 
					JOINT Toes_R
					{
						OFFSET -11.7543 0.0 0.0
						CHANNELS 6 Xposition Yposition Zposition Zrotation Xrotation Yrotation 
						End Site
						{
							OFFSET 0.0 0.0 0.0
						}
					}
				}
			}
		}
	}
}
MOTION
Frames:	4
Frame Time:	0.0333333
0.000000 0.000000 0.000000 0.000000 0.000000 -0.000000 137.317000 86.777600 -160.745000 84.036500 7.238740 0.901506 15.735700 0.000005 -0.000001 67.892400 80.214700 -64.027800 8.984550 -0.406207 -0.000000 10.685300 -7.215960 8.409150 16.377300 -0.000001 -0.000001 5.796150 -2.044030 -1.635690 6.456720 -0.000001 -0.000000 -0.048592 2.463140 2.444260 12.994200 -0.242716 4.980390 -88.787800 -3.593010 -71.343100 5.348090 -0.000007 -0.000001 -49.210300 32.103100 -28.491500 24.328600 0.000019 0.000005 -1.323590 -0.864073 -56.841000 22.291600 -0.000001 0.000005 7.948800 5.583340 -10.391900 12.994500 -0.242716 -4.980390 87.616100 5.045280 -64.667900 -5.348130 -0.000001 -0.000004 -61.005200 27.532000 -2.445680 -24.328900 0.000322 -0.000009 2.527720 4.417810 -29.828000 -22.291500 -0.000108 -0.000004 -3.185230 5.485270 -5.950020 -2.192480 -6.469440 -0.000000 -164.728000 -4.674750 9.352860 39.081100 -0.000007 -0.000012 0.019199 -0.024022 38.629000 40.985400 -0.000006 -0.000013 -2.979300 0.474407 -65.221400 11.754300 -0.000000 0.000003 -0.119510 -0.490602 -37.158900 -2.192510 6.469440 -0.000001 -171.758000 14.543400 145.834000 -39.081100 -0.002282 -0.040193 0.088048 -0.089362 43.492300 -40.985400 0.000008 0.000006 6.756300 -7.881230 -57.757700 -11.754300 -0.000006 -0.000006 -0.011661 -0.115656 -21.287500
0.000000 0.000000 0.000000 0.000000 0.000000 -0.000000 136.473000 87.111200 -156.586000 84.739200 6.879960 2.372330 15.735700 0.000005 -0.000001 70.319600 80.104700 -66.704400 8.984550 -0.406207 -0.000000 11.138800 -6.508760 7.868860 16.377300 -0.000001 -0.000001 5.899850 -2.281270 -1.381370 6.456720 -0.000001 -0.000000 0.235166 1.690620 2.584330 12.994200 -0.242716 4.980390 -88.645200 -3.987790 -71.218000 5.348090 -0.000007 -0.000001 -53.504500 34.206500 -24.019600 24.328600 0.000019 0.000005 0.964713 0.707402 -53.816900 22.291600 -0.000001 0.000005 6.927570 5.581450 -10.290300 12.994500 -0.242716 -4.980390 87.477600 5.412980 -64.967700 -5.348130 -0.000001 -0.000004 -60.431600 29.051900 -4.975000 -24.328900 0.000322 -0.000009 2.774920 4.945760 -29.354700 -22.291500 -0.000108 -0.000004 -2.701350 5.488290 -6.068790 -2.192480 -6.469440 -0.000000 -165.249000 -3.667410 6.561650 39.081100 -0.000007 -0.000012 0.103258 -0.094926 47.406600 40.985400 -0.000006 -0.000013 -1.129800 -2.521890 -56.045400 11.754300 -0.000000 0.000003 -0.062714 -0.340509 -30.649300 -2.192510 6.469440 -0.000001 -172.555000 14.858400 149.732000 -39.081100 -0.002282 -0.040193 0.096019 -0.092004 45.233200 -40.985400 0.000008 0.000006 6.703360 -7.963340 -61.669200 -11.754300 -0.000006 -0.000006 -0.009585 -0.100513 -20.667800
0.000000 0.000000 0.000000 0.000000 0.000000 -0.000000 135.818000 87.728500 -153.010000 85.260000 6.143210 2.929400 15.735700 0.000005 -0.000001 73.300600 80.220200 -69.925100 8.984550 -0.406207 -0.000000 11.177800 -5.477460 7.288730 16.377300 -0.000001 -0.000001 5.763770 -2.452420 -1.039370 6.456720 -0.000001 -0.000000 0.352280 0.825226 2.528900 12.994200 -0.242716 4.980390 -88.568500 -4.134860 -70.884700 5.348090 -0.000007 -0.000001 -57.220800 35.862100 -19.761700 24.328600 0.000019 0.000005 3.497170 2.859040 -50.793900 22.291600 -0.000001 0.000005 6.466980 5.587570 -10.628000 12.994500 -0.242716 -4.980390 87.480900 5.502150 -65.352700 -5.348130 -0.000001 -0.000004 -59.610300 30.485000 -8.158840 -24.328900 0.000322 -0.000009 2.654500 4.624430 -29.911900 -22.291500 -0.000108 -0.000004 -2.389960 5.492220 -6.222610 -2.192480 -6.469440 -0.000000 -166.213000 -3.539940 1.869090 39.081100 -0.000007 -0.000012 0.153432 -0.104617 55.711000 40.985400 -0.000006 -0.000013 3.152210 -5.646810 -47.490400 11.754300 -0.000000 0.000003 -0.005589 -0.067061 -19.305800 -2.192510 6.469440 -0.000001 -173.050000 14.969700 153.396000 -39.081100 -0.002282 -0.040193 0.091463 -0.088836 44.793500 -40.985400 0.000008 0.000006 6.749650 -7.625600 -64.142300 -11.754300 -0.000006 -0.000006 -0.008667 -0.093395 -20.376900
0.000000 0.000000 0.000000 0.000000 0.000000 -0.000000 135.413000 88.507000 -149.809000 85.776000 5.219030 3.003180 15.735700 0.000005 -0.000001 76.924000 80.400400 -73.839600 8.984550 -0.406207 -0.000000 11.079500 -4.222040 6.577900 16.377300 -0.000001 -0.000001 5.547520 -2.655600 -0.749378 6.456720 -0.000001 -0.000000 0.278800 -0.084469 2.527220 12.994200 -0.242716 4.980390 -88.549300 -4.100170 -70.496300 5.348090 -0.000007 -0.000001 -60.186600 37.106100 -15.884400 24.328600 0.000019 0.000005 4.797010 4.338410 -47.970300 22.291600 -0.000001 0.000005 6.391220 5.587350 -10.612800 12.994500 -0.242716 -4.980390 87.586300 5.388670 -65.827600 -5.348130 -0.000001 -0.000004 -58.613600 31.295400 -11.670500 -24.328900 0.000322 -0.000009 2.366690 3.881590 -31.418700 -22.291500 -0.000108 -0.000004 -2.028440 5.491500 -6.195220 -2.192480 -6.469440 -0.000000 -167.460000 -4.068970 -2.665820 39.081100 -0.000007 -0.000012 0.142154 -0.074886 62.218400 40.985400 -0.000006 -0.000013 4.735440 -8.341510 -50.069700 11.754300 -0.000000 0.000003 -0.006810 -0.078031 -19.753200 -2.192510 6.469440 -0.000001 -173.656000 14.369300 156.964000 -39.081100 -0.002282 -0.040193 0.079540 -0.081539 43.087700 -40.985400 0.000008 0.000006 6.550070 -7.501910 -65.634000 -11.754300 -0.000006 -0.000006 -0.008336 -0.090754 -20.269000
